<svg id="svg" version="1.1" xmlns="http://www.w3.org/2000/svg" xmlns:xlink="http://www.w3.org/1999/xlink" width="400" height="300" viewBox="0, 0, 400,300"><g id="svgg"><path id="path0" d="M137.134 60.104 C 136.553 60.427,108.636 88.129,105.368 91.625 L 104.659 92.383 128.501 116.184 C 141.614 129.275,163.100 150.720,176.248 163.839 L 200.152 187.694 247.863 139.984 L 295.574 92.274 279.436 76.136 C 262.244 58.944,262.614 59.261,260.384 59.821 C 259.976 59.923,246.989 72.681,229.954 89.715 C 213.610 106.058,200.117 119.430,199.969 119.430 C 199.822 119.430,186.323 106.052,169.971 89.701 C 137.440 57.171,139.334 58.879,137.134 60.104 " stroke="none" fill="#bcc39f" fill-rule="evenodd"></path><path id="path1" d="M104.562 92.802 C 104.483 93.007,104.454 114.375,104.497 140.286 L 104.576 187.397 105.326 188.873 C 106.299 190.788,146.825 231.518,148.067 231.830 C 149.337 232.148,150.988 231.744,151.822 230.910 L 152.588 230.144 152.738 185.379 L 152.888 140.615 128.797 116.522 C 115.267 102.993,104.642 92.593,104.562 92.802 " stroke="none" fill="#1c7c8b" fill-rule="evenodd"></path><path id="path2" d="M0.000 150.038 L 0.000 300.075 200.000 300.075 L 400.000 300.075 400.000 150.038 L 400.000 0.000 200.000 0.000 L 0.000 0.000 0.000 150.038 M169.989 89.122 C 186.334 105.461,199.839 118.830,200.001 118.830 C 200.163 118.830,213.667 105.461,230.009 89.122 L 259.722 59.415 261.219 59.417 C 263.332 59.420,262.673 58.831,279.940 76.137 L 295.574 91.807 295.574 139.502 C 295.574 186.923,295.570 187.205,294.958 188.647 C 294.309 190.176,254.113 230.868,252.303 231.828 C 250.432 232.821,248.071 231.790,247.230 229.613 C 247.077 229.216,246.962 210.122,246.962 185.052 L 246.962 141.187 223.630 164.517 C 210.798 177.348,200.164 187.847,199.999 187.847 C 199.834 187.847,189.234 177.382,176.444 164.591 C 163.654 151.800,153.089 141.335,152.967 141.335 C 152.844 141.335,152.709 161.317,152.666 185.740 L 152.588 230.144 151.822 230.910 C 150.988 231.744,149.337 232.148,148.067 231.830 C 146.825 231.518,106.299 190.788,105.326 188.873 L 104.576 187.397 104.498 139.682 L 104.419 91.967 120.713 75.691 L 137.008 59.415 138.640 59.415 L 140.272 59.415 169.989 89.122 " stroke="none" fill="#14243c" fill-rule="evenodd"></path><path id="path3" d="M271.334 116.513 L 247.546 140.302 247.558 185.090 C 247.567 218.419,247.658 230.020,247.916 230.433 C 248.783 231.821,250.803 232.325,252.303 231.527 C 253.305 230.994,293.877 190.363,294.362 189.406 C 295.593 186.976,295.567 188.060,295.571 139.310 C 295.572 113.687,295.472 92.723,295.348 92.723 C 295.224 92.723,284.418 103.428,271.334 116.513 " stroke="none" fill="#e34c5c" fill-rule="evenodd"></path><path id="path4" d="M120.717 75.688 C 111.757 84.638,104.426 92.142,104.426 92.365 C 104.426 92.587,104.748 92.388,105.142 91.921 C 107.982 88.553,137.009 60.024,137.763 59.859 C 139.724 59.428,139.390 59.119,170.002 89.732 C 186.335 106.066,199.820 119.430,199.968 119.430 C 200.116 119.430,213.610 106.058,229.954 89.715 C 246.989 72.681,259.976 59.923,260.384 59.821 C 262.613 59.261,262.244 58.946,279.436 76.135 C 288.312 85.010,295.574 92.167,295.574 92.039 C 295.574 91.710,264.475 60.579,263.511 59.943 C 263.023 59.621,262.138 59.418,261.219 59.417 L 259.722 59.415 230.009 89.122 C 213.667 105.461,200.163 118.830,200.001 118.830 C 199.839 118.830,186.334 105.461,169.989 89.122 L 140.272 59.415 138.640 59.415 L 137.008 59.415 120.717 75.688 M153.011 140.863 C 152.814 141.059,199.609 187.847,200.002 187.847 C 200.165 187.847,210.798 177.348,223.630 164.517 L 246.962 141.187 246.962 185.102 C 246.962 230.529,246.999 232.021,248.106 230.913 C 248.197 230.822,248.112 230.588,247.917 230.393 C 247.647 230.122,247.562 219.475,247.562 185.861 C 247.562 161.564,247.475 141.457,247.368 141.179 C 247.220 140.793,241.643 146.205,223.662 164.185 L 200.150 187.695 176.656 164.203 C 163.735 151.282,153.094 140.779,153.011 140.863 M295.145 187.118 C 295.035 187.558,295.012 187.985,295.095 188.068 C 295.177 188.150,295.335 187.858,295.445 187.418 C 295.556 186.979,295.578 186.551,295.496 186.469 C 295.413 186.386,295.256 186.678,295.145 187.118 M273.518 210.672 C 252.558 231.653,252.076 232.095,250.394 231.899 C 249.850 231.835,249.470 231.890,249.551 232.021 C 249.790 232.407,251.429 232.292,252.303 231.827 C 253.044 231.434,294.417 190.248,294.072 190.248 C 293.989 190.248,284.740 199.439,273.518 210.672 " stroke="none" fill="#625e60" fill-rule="evenodd"></path></g></svg>